Brazilian outback, cowboys preserve their age-old customs, communicating with their cattle in a form of plaintive singing known as Aboio. The chant resounds an improvised, ancient form that is an entrance to the life and the imaginary of the ancient Brazilian cattle drivers.

   General
      Complete name : Aboio.avi
      Format : AVI
      Format/Info : Audio Video Interleave
      File size : 985 MiB
      Duration : 1h 11mn
      Overall bit rate : 1 934 Kbps
      Writing application : FairUse Wizard - http://fairusewizard.com
      Writing library : The best and REALLY easy backup tool
   Video #0
      ID : 0
      Format : MPEG-4 Visual
      Format profile : AdvancedSimple@L5
      Format settings, BVOP : Yes
      Format settings, QPel : No
      Format settings, GMC : No warppoints
      Format settings, Matrix : Default (MPEG)
      Muxing mode : Packed bitstream
      Codec ID : XVID
      Codec ID/Hint : XviD
      Duration : 1h 11mn
      Bit rate : 1 733 Kbps
      Width : 624 pixels
      Height : 400 pixels
      Display aspect ratio : 1.560
      Frame rate : 23.976 fps
      Resolution : 24 bits
      Colorimetry : 4:2:0
      Scan type : Progressive
      Bits/(Pixel*Frame) : 0.290
      Stream size : 883 MiB (90%)
      Writing library : XviD 1.2.0.dev47 (UTC 2006-11-01)
   Audio #1
      ID : 1
      Format : AC-3
      Format/Info : Audio Coding 3
      Codec ID : 2000
      Duration : 1h 11mn
      Bit rate mode : Constant
      Bit rate : 192 Kbps
      Channel(s) : 2 channels
      Channel positions : L R
      Sampling rate : 48.0 KHz
      Stream size : 97.8 MiB (10%)
      Alignment : Split accross interleaves
      Interleave, duration : 42 ms (1.00 video frame)
      Interleave, preload duration : 500 ms
 
http://www.mariliarocha.com/trabalhos/aboio

Portuguese audio; English, French and Portuguese subpack (idx/sub)

My rip of the Brazilian DVD

Marilia Rocha - Aboio (2005)